P2
5 4
255
   0 255 255 255   0 
   0   0 255   0   0
   0   0 255   0   0
   0   0 255   0   0